<?xml version="1.0" encoding="utf-8"?>
<!-- Generator: Adobe Illustrator 24.2.3, SVG Export Plug-In . SVG Version: 6.00 Build 0)  -->
<svg version="1.1" id="Layer_1" xmlns="http://www.w3.org/2000/svg" xmlns:xlink="http://www.w3.org/1999/xlink" x="0px" y="0px"
	 viewBox="0 0 12 12" enable-background="new 0 0 12 12" xml:space="preserve">
<circle fill="#FFFFFF" cx="6" cy="6" r="5.5"/>
<path fill="#744C9E" d="M6,0C2.686,0,0,2.686,0,6s2.686,6,6,6c3.314,0,6-2.686,6-6S9.314,0,6,0z M1.289,6.063l4.648,4.648
	C3.385,10.677,1.322,8.615,1.289,6.063z M7.055,10.593L1.407,4.946C1.886,2.851,3.76,1.288,6,1.288c1.565,0,2.952,0.764,3.809,1.939
	L9.157,3.803C8.462,2.806,7.307,2.154,6,2.154c-1.664,0-3.082,1.057-3.617,2.537L7.31,9.617c1.196-0.433,2.117-1.443,2.425-2.694
	H7.692V6h3.019C10.712,8.24,9.149,10.114,7.055,10.593L7.055,10.593z"/>
</svg>
