<?xml version="1.0" encoding="utf-8"?>
<!-- Generator: Adobe Illustrator 24.2.3, SVG Export Plug-In . SVG Version: 6.00 Build 0)  -->
<svg version="1.1" id="Layer_1" xmlns="http://www.w3.org/2000/svg" xmlns:xlink="http://www.w3.org/1999/xlink" x="0px" y="0px"
	 viewBox="0 0 18 18" enable-background="new 0 0 18 18" xml:space="preserve">
<rect x="2" y="3" fill="#F9B4AC" width="1" height="8.999"/>
<rect x="15" y="3" fill="#F9B4AC" width="1" height="8.999"/>
<path fill="#F3695A" d="M16.3,2h-5.8C10.776,2,11,1.776,11,1.5S10.776,1,10.5,1h-3C7.224,1,7,1.224,7,1.5S7.224,2,7.5,2H1.7
	C1.313,2,1,2.313,1,2.7s0.313,0.7,0.7,0.7h14.6c0.387,0,0.7-0.313,0.7-0.7S16.687,2,16.3,2z"/>
<path fill="#F3695A" d="M16.3,11.599H1.7c-0.387,0-0.7,0.313-0.7,0.7c0,0.387,0.313,0.7,0.699,0.7H8.3v0.894l-3.147,1.8
	c-0.338,0.188-0.459,0.615-0.27,0.952c0.188,0.338,0.615,0.459,0.952,0.27c0.004-0.002,0.008-0.005,0.012-0.007l0,0L9,15.098
	l3.152,1.8c0.336,0.192,0.764,0.075,0.956-0.261s0.075-0.764-0.261-0.956l0,0L9.7,13.892v-0.894h6.6c0.387,0,0.7-0.314,0.7-0.7
	C16.999,11.912,16.686,11.599,16.3,11.599L16.3,11.599z"/>
</svg>
